

General
Complete name                            : Star Parivar Awards 2012 Shubh Aagam_24th March HQ XviD.avi
Format                                   : AVI
Format/Info                              : Audio Video Interleave
Format profile                           : OpenDML
Format settings                          : rec
File size                                : 470 MiB
Duration                                 : 40mn 14s
Overall bit rate                         : 1 632 Kbps
Writing application                      : AVI-Mux GUI 1.17.8.3, Feb 16 201019:42:50

Video
ID                                       : 0
Format                                   : MPEG-4 Visual
Format profile                           : Advanced Simple@L5
Format settings, BVOP                    : 2
Format settings, QPel                    : No
Format settings, GMC                     : No warppoints
Format settings, Matrix                  : Default (H.263)
Codec ID                                 : XVID
Codec ID/Hint                            : XviD
Duration                                 : 40mn 14s
Bit rate                                 : 1 499 Kbps
Width                                    : 512 pixels
Height                                   : 384 pixels
Display aspect ratio                     : 4:3
Frame rate                               : 29.970 fps
Color space                              : YUV
Chroma subsampling                       : 4:2:0
Bit depth                                : 8 bits
Scan type                                : Progressive
Compression mode                         : Lossy
Bits/(Pixel*Frame)                       : 0.254
Stream size                              : 432 MiB (92%)
Writing library                          : XviD 1.2.1 (UTC 2008-12-04)

Audio
ID                                       : 1
Format                                   : MPEG Audio
Format version                           : Version 1
Format profile                           : Layer 3
Mode                                     : Joint stereo
Mode extension                           : MS Stereo
Codec ID                                 : 55
Codec ID/Hint                            : MP3
Duration                                 : 40mn 14s
Bit rate mode                            : Constant
Bit rate                                 : 128 Kbps
Channel(s)                               : 2 channels
Sampling rate                            : 48.0 KHz
Compression mode                         : Lossy
Stream size                              : 36.8 MiB (8%)
Alignment                                : Aligned on interleaves
Interleave, duration                     : 532 ms (15.95 video frames)
Interleave, preload duration             : 216 ms
Title                                    : Star Parivar Awards 2012 Shubh Aagam_24th March HQ XviD Tc0 L2 2ch 48 384 DELAY 0ms
Writing library                          : LAME3.98r
Encoding settings                        : -m j -V 4 -q 2 -lowpass 17 -b 128


 
http://i.minus.com/jjCUnXeUWG1kq.jpg
 
http://i.minus.com/jbdy4dIfjMkrDT.PNG